<?xml version="1.0" encoding="UTF-8" standalone="no"?>
<!-- Created with Inkscape (http://www.inkscape.org/) -->

<svg
   width="8.4666595mm"
   height="8.4666634mm"
   viewBox="0 0 8.4666595 8.4666634"
   version="1.1"
   id="svg5"
   xml:space="preserve"
   inkscape:version="1.2 (dc2aedaf03, 2022-05-15)"
   sodipodi:docname="icons.svg"
   xmlns:inkscape="http://www.inkscape.org/namespaces/inkscape"
   xmlns:sodipodi="http://sodipodi.sourceforge.net/DTD/sodipodi-0.dtd"
   xmlns="http://www.w3.org/2000/svg"
   xmlns:svg="http://www.w3.org/2000/svg"><defs
     id="defs2" /><g
     inkscape:label="Layer 1"
     inkscape:groupmode="layer"
     id="layer1"
     transform="translate(-250.85729,-60.441111)"><path
       id="path8347"
       style="fill:#ff0000ff;stroke-width:0.264583"
       d="m 255.09062,60.44111 c -2.33801,0 -4.23334,1.89534 -4.23334,4.23333 0,2.33802 1.89533,4.23334 4.23334,4.23334 2.33801,0 4.23333,-1.89532 4.23333,-4.23334 0,-2.33799 -1.89531,-4.23333 -4.23333,-4.23333 z m 0,0.20826 c 2.22361,0 4.02559,1.80146 4.02559,4.02507 0,2.22362 -1.80198,4.0256 -4.02559,4.0256 -2.22362,0 -4.02509,-1.80198 -4.02509,-4.0256 0,-2.22361 1.80147,-4.02507 4.02509,-4.02507 z m 0.55241,1.80557 c -0.6218,0 -1.03611,0.37986 -1.03611,1.07074 v 0.62218 h -0.6909 v 0.79478 h 0.6909 v 1.9141 c 0.14623,0.024 0.29599,0.0372 0.44907,0.0372 0.12894,0 0.25565,-0.009 0.37982,-0.0264 v -1.92546 h 0.65681 l 0.13797,-0.79427 h -0.76016 V 63.6295 c 0,-0.20727 0.10366,-0.41393 0.44908,-0.41393 h 0.34571 v -0.69092 c 0,0 -0.31128,-0.0698 -0.62219,-0.0698 z" /></g></svg>
