<?xml version="1.0" encoding="UTF-8" standalone="no"?>
<!-- Created with Inkscape (http://www.inkscape.org/) -->

<svg
   width="8.4666748mm"
   height="8.4666634mm"
   viewBox="0 0 8.4666748 8.4666634"
   version="1.1"
   id="svg5"
   xml:space="preserve"
   xmlns="http://www.w3.org/2000/svg"
   xmlns:svg="http://www.w3.org/2000/svg"><defs
     id="defs2" /><g
     id="layer1"
     transform="translate(-261.5362,-60.193293)"><path
       id="path9287"
       style="fill:#ffffff;stroke-width:0.264583"
       d="m 265.76952,60.193293 c -2.338,0 -4.23334,1.895335 -4.23334,4.233333 0,2.338018 1.89534,4.233333 4.23334,4.233333 2.33801,0 4.23333,-1.895315 4.23333,-4.233333 0,-2.337998 -1.89532,-4.233333 -4.23333,-4.233333 z m 0,0.208256 c 2.22361,0 4.02559,1.801459 4.02559,4.025077 0,2.223618 -1.80198,4.025594 -4.02559,4.025594 -2.22362,0 -4.02508,-1.801976 -4.02508,-4.025594 0,-2.223618 1.80146,-4.025077 4.02508,-4.025077 z m -0.89917,1.829345 c -0.23812,0 -0.39687,0.053 -0.52917,0.105937 -0.13229,0.0529 -0.26459,0.132294 -0.39688,0.264583 -0.13229,0.13229 -0.18521,0.238126 -0.26458,0.396875 -0.0529,0.1323 -0.0795,0.291047 -0.10594,0.529167 v 1.798857 c 0,0.23812 0.053,0.396877 0.10594,0.529166 0.0529,0.1323 0.13229,0.264586 0.26458,0.396875 0.13229,0.13229 0.23814,0.185215 0.39688,0.264584 0.1323,0.0529 0.29105,0.0795 0.52917,0.105936 h 1.79885 c 0.23812,0 0.39688,-0.053 0.52917,-0.105936 0.1323,-0.0529 0.26458,-0.132294 0.39687,-0.264584 0.13229,-0.132289 0.18522,-0.238125 0.26459,-0.396875 0.0529,-0.132289 0.0795,-0.291046 0.10593,-0.529166 v -1.798857 c 0,-0.23812 -0.053,-0.396867 -0.10593,-0.529167 -0.0529,-0.132289 -0.1323,-0.264585 -0.26459,-0.396875 -0.13229,-0.132289 -0.23812,-0.185213 -0.39687,-0.264583 -0.13229,-0.0529 -0.29105,-0.0795 -0.52917,-0.105937 z m 0,0.396875 h 1.79885 c 0.17891,0 0.2825,0.03793 0.35812,0.06563 0.0138,0.005 0.0266,0.01005 0.0388,0.01395 0.022,0.011 0.0436,0.02047 0.0636,0.02997 0.0759,0.0359 0.1382,0.06591 0.20102,0.128675 0.0794,0.0794 0.1327,0.158753 0.15916,0.264583 0.0265,0.0794 0.0526,0.185205 0.0791,0.396875 v 1.798857 c 0,0.17891 -0.0374,0.282507 -0.0651,0.358117 -0.005,0.0138 -0.0102,0.02646 -0.014,0.03876 -0.011,0.0221 -0.021,0.04295 -0.0305,0.06305 -0.0359,0.0759 -0.0659,0.138728 -0.12868,0.201538 -0.0794,0.0794 -0.15875,0.132704 -0.26458,0.159163 -0.0794,0.0265 -0.18522,0.05257 -0.39688,0.07906 h -1.79885 c -0.17891,0 -0.2825,-0.03793 -0.35812,-0.06563 -0.0138,-0.005 -0.0265,-0.009 -0.0388,-0.01344 -0.0221,-0.011 -0.043,-0.02099 -0.063,-0.03049 -0.0759,-0.0359 -0.13873,-0.06589 -0.20154,-0.128674 -0.0794,-0.0794 -0.13219,-0.158753 -0.15865,-0.264583 -0.0265,-0.0794 -0.0531,-0.185215 -0.0796,-0.396875 v -1.798857 c 0,-0.17891 0.0379,-0.282498 0.0656,-0.358118 0.005,-0.0138 0.0101,-0.02656 0.0139,-0.03876 0.011,-0.0221 0.021,-0.04303 0.0305,-0.06304 0.0359,-0.0759 0.0654,-0.138729 0.12816,-0.201538 0.0794,-0.0794 0.15875,-0.132197 0.26458,-0.158647 0.0794,-0.0265 0.18521,-0.05308 0.39688,-0.07958 z m 2.06344,0.37052 c -0.14613,0 -0.26459,0.118454 -0.26459,0.264584 0,0.146129 0.11846,0.264583 0.26459,0.264583 0.14613,0 0.26458,-0.118454 0.26458,-0.264583 0,-0.14613 -0.11845,-0.264584 -0.26458,-0.264584 z m -1.16376,0.290422 c -0.635,0 -1.13791,0.502916 -1.13791,1.137915 0,0.634998 0.50291,1.137915 1.13791,1.137915 0.635,0 1.1374,-0.502917 1.1374,-1.137915 0,-0.634999 -0.5024,-1.137915 -1.1374,-1.137915 z m 0,0.396875 c 0.39686,0 0.74053,0.3177 0.74053,0.74104 0,0.396879 -0.34367,0.74104 -0.74053,0.74104 -0.39689,0 -0.74104,-0.317701 -0.74104,-0.74104 0,-0.39687 0.3177,-0.74104 0.74104,-0.74104 z" /></g></svg>
