<?xml version="1.0" encoding="UTF-8" standalone="no"?>
<!-- Created with Inkscape (http://www.inkscape.org/) -->

<svg
   width="8.4666595mm"
   height="8.4666634mm"
   viewBox="0 0 8.4666595 8.4666634"
   version="1.1"
   id="svg5"
   xml:space="preserve"
   inkscape:version="1.2 (dc2aedaf03, 2022-05-15)"
   sodipodi:docname="icons.svg"
   xmlns:inkscape="http://www.inkscape.org/namespaces/inkscape"
   xmlns:sodipodi="http://sodipodi.sourceforge.net/DTD/sodipodi-0.dtd"
   xmlns="http://www.w3.org/2000/svg"
   xmlns:svg="http://www.w3.org/2000/svg"><sodipodi:namedview
     id="namedview7"
     pagecolor="#ffffff"
     bordercolor="#000000"
     borderopacity="0.25"
     inkscape:showpageshadow="true"
     inkscape:pageopacity="0.01960784"
     inkscape:pagecheckerboard="true"
     inkscape:deskcolor="#d1d1d1"
     inkscape:document-units="mm"
     showgrid="false"
     inkscape:zoom="0.84096521"
     inkscape:cx="729.51889"
     inkscape:cy="373.38049"
     inkscape:window-width="1920"
     inkscape:window-height="1017"
     inkscape:window-x="-8"
     inkscape:window-y="-8"
     inkscape:window-maximized="1"
     inkscape:current-layer="layer1"
     shape-rendering="auto"
     showborder="true" /><defs
     id="defs2" /><g
     inkscape:label="Layer 1"
     inkscape:groupmode="layer"
     id="layer1"
     transform="translate(-240.91923,-60.193293)"><path
       id="path9292"
       style="fill:#ffffff;stroke-width:0.264583"
       d="m 245.15256,60.193293 c -2.338,0 -4.23333,1.895335 -4.23333,4.233333 0,2.338018 1.89533,4.233333 4.23333,4.233333 2.33802,0 4.23333,-1.895315 4.23333,-4.233333 0,-2.337998 -1.89531,-4.233333 -4.23333,-4.233333 z m 0,0.208256 c 2.22362,0 4.02559,1.801459 4.02559,4.025077 0,2.223618 -1.80197,4.025594 -4.02559,4.025594 -2.22362,0 -4.02508,-1.801976 -4.02508,-4.025594 0,-2.223618 1.80146,-4.025077 4.02508,-4.025077 z m 0.76791,2.305285 c -0.54276,0.01615 -0.95085,0.537442 -0.82062,1.058334 -0.71439,-0.02645 -1.34957,-0.370518 -1.79937,-0.899687 -0.23813,0.396879 -0.10583,0.89968 0.26458,1.16427 -0.13229,0 -0.26459,-0.05304 -0.39688,-0.105937 0,0.39688 0.29147,0.766985 0.68833,0.872815 -0.13229,0.0265 -0.26457,0.05337 -0.39687,0.02687 0.10583,0.34396 0.42323,0.608231 0.8201,0.608231 -0.31749,0.2381 -0.79405,0.37071 -1.24385,0.317811 0.39688,0.238119 0.84667,0.396875 1.32292,0.396875 1.61397,0 2.51373,-1.349585 2.46083,-2.593124 0.18522,-0.10584 0.34376,-0.264385 0.44959,-0.449585 -0.15875,0.07939 -0.31708,0.105792 -0.5023,0.132292 0.18521,-0.10584 0.3171,-0.264797 0.37,-0.476457 -0.15875,0.10583 -0.34385,0.158974 -0.55552,0.211874 -0.15875,-0.15875 -0.39697,-0.264584 -0.6351,-0.264584 -0.009,0 -0.0172,-2.56e-4 -0.0258,0 z" /></g></svg>
